<svg id="Layer_1" enable-background="new 0 0 256 256" height="512" viewBox="0 0 256 256" width="512" xmlns="http://www.w3.org/2000/svg"><g><g><path d="m244.723 208.016c3.959 0 7.168-3.209 7.168-7.168v-20.818c0-3.959-3.209-7.168-7.168-7.168-3.958 0-7.167 3.209-7.167 7.168v20.818c0 3.959 3.209 7.168 7.167 7.168z" fill="#8852a8"/></g><g><path d="m131.841 186.256h105.715v8.365h-105.715z" fill="#f4efed"/></g><g><path d="m244.724 210.016c-5.056 0-9.168-4.112-9.168-9.167v-20.819c0-5.055 4.112-9.168 9.168-9.168 5.055 0 9.167 4.112 9.167 9.168v20.818c0 5.055-4.113 9.168-9.167 9.168zm0-35.154c-2.85 0-5.168 2.318-5.168 5.168v20.818c0 2.849 2.318 5.167 5.168 5.167 2.849 0 5.167-2.318 5.167-5.167v-20.818c0-2.849-2.319-5.168-5.167-5.168z" fill="#690589"/></g><g><path d="m237.556 196.622h-105.715c-1.105 0-2-.896-2-2v-8.365c0-1.104.895-2 2-2h105.715c1.105 0 2 .896 2 2v8.365c0 1.104-.896 2-2 2zm-103.715-4h101.715v-4.365h-101.715z" fill="#690589"/></g><g><path d="m228.103 38.024h-86.81c-5.052 0-9.147 4.096-9.147 9.147v5.178h105.105v-5.178c0-5.051-4.096-9.147-9.148-9.147z" fill="#fcc24c"/></g><g><path d="m243.954 68.441h-118.512c-4.443 0-8.046-3.602-8.046-8.046 0-4.444 3.602-8.046 8.046-8.046h118.512c4.443 0 8.046 3.602 8.046 8.046 0 4.444-3.602 8.046-8.046 8.046z" fill="#fcc24c"/></g><g><path d="m228.103 202.467h-86.81l-9.147-134.026h105.105z" fill="#fcc24c"/></g><g><path d="m243.954 52.35h-8.964c4.443 0 8.046 3.602 8.046 8.046s-3.602 8.046-8.046 8.046h8.964c4.443 0 8.046-3.602 8.046-8.046s-3.602-8.046-8.046-8.046z" fill="#dea42e"/></g><g><path d="m228.103 38.024h-8.964c5.052 0 9.148 4.096 9.148 9.148v5.178h8.964v-5.178c0-5.052-4.096-9.148-9.148-9.148z" fill="#dea42e"/></g><g><path d="m141.293 38.024h8.964c-5.052 0-9.148 4.096-9.148 9.148v5.178h-8.964v-5.178c.001-5.052 4.096-9.148 9.148-9.148z" fill="#fce06a"/></g><g><path d="m229.283 68.441-9.148 134.026h7.968l9.148-134.026z" fill="#dea42e"/></g><g><path d="m243.954 70.441h-118.512c-5.539 0-10.045-4.506-10.045-10.045 0-5.54 4.506-10.046 10.045-10.046h118.512c5.539 0 10.046 4.506 10.046 10.046 0 5.539-4.507 10.045-10.046 10.045zm-118.512-16.091c-3.333 0-6.045 2.712-6.045 6.046 0 3.333 2.712 6.045 6.045 6.045h118.512c3.334 0 6.046-2.712 6.046-6.045 0-3.334-2.712-6.046-6.046-6.046z" fill="#690589"/></g><g><path d="m237.251 54.35h-105.106c-1.104 0-2-.896-2-2v-5.178c0-6.147 5.001-11.147 11.148-11.147h86.81c6.147 0 11.148 5 11.148 11.147v5.178c0 1.104-.896 2-2 2zm-103.106-4h101.106v-3.178c0-3.941-3.206-7.147-7.148-7.147h-86.81c-3.941 0-7.148 3.207-7.148 7.147z" fill="#690589"/></g><g><path d="m228.103 204.467h-86.81c-1.052 0-1.924-.814-1.995-1.864l-9.148-134.026c-.038-.553.155-1.097.533-1.501.379-.405.908-.635 1.462-.635h105.106c.554 0 1.083.23 1.462.635.378.405.571.949.533 1.501l-9.147 134.026c-.072 1.049-.944 1.864-1.996 1.864zm-84.942-4h83.074l8.874-130.026h-100.822z" fill="#690589"/></g><g><path d="m18.444 186.256h105.715v8.365h-105.715z" fill="#f4efed"/></g><g><path d="m124.159 196.622h-105.715c-1.104 0-2-.896-2-2v-8.365c0-1.104.896-2 2-2h105.715c1.104 0 2 .896 2 2v8.365c0 1.104-.895 2-2 2zm-103.715-4h101.715v-4.365h-101.715z" fill="#690589"/></g><g><path d="m114.707 38.024h-86.81c-5.052 0-9.147 4.096-9.147 9.147v5.178h105.105v-5.178c-.001-5.051-4.096-9.147-9.148-9.147z" fill="#576fa5"/></g><g><path d="m130.558 68.441h-118.512c-4.444 0-8.046-3.602-8.046-8.046 0-4.444 3.602-8.046 8.046-8.046h118.512c4.443 0 8.046 3.602 8.046 8.046-.001 4.444-3.603 8.046-8.046 8.046z" fill="#576fa5"/></g><g><path d="m114.707 202.467h-86.811l-9.147-134.026h105.105z" fill="#576fa5"/></g><g><path d="m11.276 208.016c3.959 0 7.168-3.209 7.168-7.168v-20.818c0-3.959-3.209-7.168-7.168-7.168-3.959 0-7.168 3.209-7.168 7.168v20.818c.001 3.959 3.21 7.168 7.168 7.168z" fill="#8852a8"/></g><g><path d="m11.276 210.016c-5.055 0-9.167-4.112-9.167-9.167v-20.819c0-5.055 4.112-9.168 9.167-9.168s9.167 4.112 9.167 9.168v20.818c.001 5.055-4.112 9.168-9.167 9.168zm0-35.154c-2.849 0-5.167 2.318-5.167 5.168v20.818c0 2.849 2.318 5.167 5.167 5.167s5.167-2.318 5.167-5.167v-20.818c.001-2.849-2.318-5.168-5.167-5.168z" fill="#690589"/></g><g><path d="m12.046 68.441h8.964c-4.444 0-8.046-3.602-8.046-8.046s3.602-8.046 8.046-8.046h-8.964c-4.444.001-8.046 3.603-8.046 8.046s3.602 8.046 8.046 8.046z" fill="#708dc8"/></g><g><path d="m114.707 38.024h-8.964c5.052 0 9.147 4.096 9.147 9.148v5.178h8.964v-5.178c0-5.052-4.095-9.148-9.147-9.148z" fill="#395288"/></g><g><path d="m27.896 38.024h8.964c-5.052 0-9.147 4.096-9.147 9.148v5.178h-8.964v-5.178c0-5.052 4.095-9.148 9.147-9.148z" fill="#708dc8"/></g><g><path d="m26.717 68.441 9.147 134.026h-7.968l-9.147-134.026z" fill="#708dc8"/></g><g><path d="m130.558 70.441h-118.513c-5.539 0-10.045-4.506-10.045-10.045 0-5.54 4.506-10.046 10.045-10.046h118.512c5.539 0 10.046 4.506 10.046 10.046 0 5.539-4.506 10.045-10.045 10.045zm-118.513-16.091c-3.333 0-6.045 2.712-6.045 6.046 0 3.333 2.712 6.045 6.045 6.045h118.512c3.334 0 6.046-2.712 6.046-6.045 0-3.334-2.712-6.046-6.046-6.046z" fill="#690589"/></g><g><path d="m123.854 54.35h-105.105c-1.105 0-2-.896-2-2v-5.178c0-6.147 5.001-11.147 11.147-11.147h86.81c6.147 0 11.148 5 11.148 11.147v5.178c0 1.104-.896 2-2 2zm-103.105-4h101.105v-3.178c0-3.941-3.207-7.147-7.148-7.147h-86.81c-3.941 0-7.147 3.207-7.147 7.147z" fill="#690589"/></g><g><path d="m114.706 204.467h-86.81c-1.052 0-1.924-.814-1.995-1.864l-9.147-134.026c-.038-.553.155-1.097.534-1.501.378-.405.907-.635 1.461-.635h105.105c.554 0 1.083.23 1.461.635s.572.949.534 1.501l-9.148 134.026c-.071 1.049-.943 1.864-1.995 1.864zm-84.941-4h83.074l8.874-130.026h-100.823z" fill="#690589"/></g><g><path d="m188.025 217.976c3.959 0 7.168-3.209 7.168-7.168v-20.818c0-3.959-3.209-7.168-7.167-7.168-3.959 0-7.168 3.209-7.168 7.168v20.818c-.001 3.959 3.208 7.168 7.167 7.168z" fill="#8852a8"/></g><g><path d="m75.142 196.216h105.715v8.365h-105.715z" fill="#f4efed"/></g><g><path d="m188.025 219.976c-5.056 0-9.168-4.112-9.168-9.168v-20.818c0-5.055 4.112-9.167 9.168-9.167 5.055 0 9.167 4.112 9.167 9.167v20.818c0 5.055-4.112 9.168-9.167 9.168zm0-35.154c-2.85 0-5.168 2.318-5.168 5.167v20.818c0 2.849 2.318 5.168 5.168 5.168 2.849 0 5.167-2.318 5.167-5.168v-20.817c0-2.849-2.318-5.168-5.167-5.168z" fill="#690589"/></g><g><path d="m180.857 206.582h-105.714c-1.104 0-2-.896-2-2v-8.365c0-1.104.896-2 2-2h105.715c1.105 0 2 .896 2 2v8.365c-.001 1.104-.896 2-2.001 2zm-103.714-4h101.715v-4.365h-101.715z" fill="#690589"/></g><g><path d="m171.405 47.984h-86.81c-5.052 0-9.148 4.096-9.148 9.148v5.178h105.105v-5.178c0-5.052-4.095-9.148-9.147-9.148z" fill="#7bac51"/></g><g><path d="m187.256 78.401h-118.512c-4.444 0-8.046-3.602-8.046-8.046 0-4.444 3.602-8.046 8.046-8.046h118.512c4.444 0 8.046 3.602 8.046 8.046-.001 4.444-3.603 8.046-8.046 8.046z" fill="#7bac51"/></g><g><path d="m171.405 212.427h-86.81l-9.148-134.026h105.105z" fill="#7bac51"/></g><g><path d="m67.975 217.976c3.959 0 7.168-3.209 7.168-7.168v-20.818c0-3.959-3.209-7.168-7.168-7.168-3.958 0-7.167 3.209-7.167 7.168v20.818c-.001 3.959 3.208 7.168 7.167 7.168z" fill="#8852a8"/></g><g><path d="m67.975 219.976c-5.055 0-9.167-4.112-9.167-9.168v-20.818c0-5.055 4.112-9.167 9.167-9.167s9.168 4.112 9.168 9.167v20.818c0 5.055-4.113 9.168-9.168 9.168zm0-35.154c-2.849 0-5.167 2.318-5.167 5.167v20.818c0 2.849 2.318 5.168 5.167 5.168s5.168-2.318 5.168-5.168v-20.817c0-2.849-2.319-5.168-5.168-5.168z" fill="#690589"/></g><g><path d="m187.256 62.31h-8.964c4.443 0 8.046 3.602 8.046 8.046 0 4.443-3.602 8.046-8.046 8.046h8.964c4.444 0 8.046-3.602 8.046-8.046-.001-4.444-3.603-8.046-8.046-8.046z" fill="#5d8e33"/></g><g><path d="m68.744 78.401h8.964c-4.443 0-8.046-3.602-8.046-8.046s3.602-8.046 8.046-8.046h-8.964c-4.443 0-8.046 3.602-8.046 8.046s3.603 8.046 8.046 8.046z" fill="#99ca6f"/></g><g><path d="m171.405 47.984h-8.964c5.052 0 9.147 4.096 9.147 9.148v5.178h8.964v-5.178c0-5.052-4.095-9.148-9.147-9.148z" fill="#5d8e33"/></g><g><path d="m84.595 47.984h8.964c-5.052 0-9.148 4.096-9.148 9.148v5.178h-8.964v-5.178c0-5.052 4.096-9.148 9.148-9.148z" fill="#99ca6f"/></g><g><path d="m172.584 78.401-9.147 134.026h7.968l9.147-134.026z" fill="#5d8e33"/></g><g><path d="m83.415 78.401 9.148 134.026h-7.968l-9.148-134.026z" fill="#99ca6f"/></g><g><path d="m187.256 80.401h-118.512c-5.54 0-10.046-4.506-10.046-10.045 0-5.54 4.506-10.046 10.046-10.046h118.512c5.539 0 10.046 4.506 10.046 10.046 0 5.539-4.507 10.045-10.046 10.045zm-118.512-16.091c-3.334 0-6.046 2.712-6.046 6.046 0 3.333 2.712 6.045 6.046 6.045h118.512c3.334 0 6.046-2.712 6.046-6.045 0-3.334-2.712-6.046-6.046-6.046z" fill="#690589"/></g><g><path d="m180.553 64.31h-105.106c-1.104 0-2-.896-2-2v-5.178c0-6.147 5.001-11.147 11.148-11.147h86.81c6.146 0 11.147 5 11.147 11.147v5.178c.001 1.104-.895 2-1.999 2zm-103.106-4h101.105v-3.178c0-3.941-3.206-7.147-7.147-7.147h-86.81c-3.941 0-7.148 3.207-7.148 7.147z" fill="#690589"/></g><g><path d="m171.405 214.427h-86.81c-1.052 0-1.924-.814-1.996-1.864l-9.147-134.026c-.038-.553.155-1.097.534-1.501.378-.405.907-.635 1.461-.635h105.105c.554 0 1.083.23 1.462.635.378.405.571.949.533 1.501l-9.147 134.026c-.071 1.049-.943 1.864-1.995 1.864zm-84.942-4h83.074l8.874-130.026h-100.823z" fill="#690589"/></g><g><path d="m141.683 134.539-18.704-32.279h17.732c1.185 0 2.279.631 2.872 1.657l12.954 22.392z" fill="#f4efed"/></g><g><path d="m141.685 136.539c-.691 0-1.362-.358-1.732-.998l-18.703-32.279c-.358-.619-.359-1.381-.002-2.001s1.018-1.001 1.733-1.001h17.731c1.892 0 3.655 1.017 4.604 2.654l12.955 22.394c.269.465.339 1.018.196 1.535-.143.518-.489.956-.959 1.216l-14.855 8.23c-.308.169-.64.25-.968.25zm-15.235-32.28 15.98 27.579 11.357-6.292-11.935-20.629c-.234-.406-.673-.658-1.142-.658z" fill="#690589"/></g><g><path d="m125.225 152.174h36.29l-8.879 15.512c-.591 1.033-1.69 1.67-2.88 1.67h-24.532v-17.182z" fill="#f4efed"/></g><g><path d="m149.757 171.356h-24.532c-1.104 0-2-.896-2-2v-17.183c0-1.105.896-2 2-2h36.291c.713 0 1.372.38 1.73.997.357.617.359 1.378.005 1.997l-8.879 15.513c-.945 1.651-2.714 2.676-4.615 2.676zm-22.532-4h22.532c.472 0 .91-.254 1.145-.665l7.165-12.518h-30.842z" fill="#690589"/></g><g><path d="m94.472 152.174 8.892 15.514c.591 1.032 1.69 1.668 2.879 1.668h14.107v2.983c0 1.468 1.765 2.213 2.817 1.189l11.988-11.675c.671-.653.669-1.731-.004-2.381l-11.988-11.597c-1.053-1.019-2.813-.272-2.813 1.193v3.106z" fill="#f4efed"/></g><g><path d="m94.472 152.174-3.866-6.962c-.568-1.023-.555-2.27.034-3.281l13.9-23.859 14.759 8.602-14.805 25.5z" fill="#f4efed"/></g><g><path d="m122.011 176c-.479 0-.964-.094-1.425-.289-1.358-.573-2.236-1.896-2.236-3.371v-.983h-12.107c-1.901 0-3.669-1.024-4.614-2.674l-8.893-15.514c-.354-.619-.353-1.38.005-1.998.357-.617 1.017-.997 1.731-.997h23.878v-1.106c0-1.472.876-2.795 2.231-3.369 1.356-.575 2.914-.285 3.973.739l11.988 11.596c.718.694 1.113 1.626 1.115 2.625.002.998-.392 1.931-1.107 2.627l-11.987 11.674c-.699.681-1.617 1.04-2.552 1.04zm-24.088-21.826 7.176 12.52c.234.409.672.663 1.144.663h14.107c1.104 0 2 .896 2 2v2.175l11.159-10.867-11.159-10.793v2.302c0 1.104-.896 2-2 2z" fill="#690589"/></g><g><path d="m104.495 154.174h-10.023c-.727 0-1.396-.394-1.749-1.029l-3.865-6.962c-.906-1.63-.885-3.646.054-5.258l13.901-23.86c.267-.459.705-.792 1.218-.927.513-.134 1.059-.061 1.517.206l14.759 8.602c.953.556 1.276 1.778.722 2.732l-14.805 25.5c-.358.616-1.017.996-1.729.996zm-8.846-4h7.694l13.224-22.777-11.306-6.59-12.893 22.131c-.233.399-.238.899-.014 1.303z" fill="#690589"/></g><g><path d="m133.043 102.259h-18.127c-1.201 0-2.308.649-2.895 1.697l-6.655 11.88-3.427-1.932c-1.279-.721-2.796.453-2.418 1.872l4.706 17.701c.24.902 1.175 1.428 2.071 1.166l17.1-5.016c1.392-.408 1.627-2.28.379-3.02l-3.449-2.044z" fill="#f4efed"/></g><g><path d="m105.823 136.713c-.62 0-1.232-.16-1.789-.473-.867-.488-1.485-1.287-1.741-2.249l-4.706-17.701c-.379-1.425.13-2.93 1.297-3.833 1.168-.903 2.751-1.019 4.037-.294l1.68.947 5.674-10.131c.94-1.677 2.718-2.719 4.641-2.719h18.127c.713 0 1.371.379 1.729.995.357.616.361 1.377.008 1.996l-11.742 20.596 1.757 1.041c1.254.743 1.947 2.157 1.766 3.603-.182 1.446-1.203 2.646-2.601 3.056l-17.1 5.016c-.342.1-.691.15-1.037.15zm-4.162-20.669 4.408 16.582 16.013-4.698-2.775-1.644c-.939-.557-1.258-1.763-.718-2.711l11.011-19.313h-14.685c-.477 0-.918.258-1.15.674l-6.654 11.88c-.26.463-.693.805-1.205.948-.511.144-1.059.077-1.522-.184z" fill="#690589"/></g><g><path d="m165.422 142.229-6.677-12.559 2.727-1.634c1.232-.739 1.008-2.588-.366-3.009l-16.512-5.07c-.914-.281-1.875.267-2.1 1.195l-4.071 16.798c-.343 1.416 1.175 2.555 2.439 1.83l2.841-1.63 12.895 22.617 8.774-15.33c.567-.991.585-2.202.05-3.208z" fill="#f4efed"/></g><g><path d="m156.598 162.765c-.689.002-1.382-.385-1.737-1.009l-11.901-20.874-1.102.632c-1.268.729-2.847.631-4.018-.248s-1.704-2.366-1.358-3.789l4.07-16.797c.237-.977.874-1.822 1.747-2.319.873-.498 1.925-.612 2.884-.317l16.512 5.069c1.4.43 2.381 1.601 2.558 3.056.178 1.455-.493 2.827-1.751 3.581l-1.097.658 5.785 10.881s.001.001.001.001c.861 1.623.831 3.544-.082 5.138l-8.774 15.33c-.358.623-1.021 1.007-1.737 1.007zm-12.895-26.616c.176 0 .353.023.525.07.513.14.949.478 1.212.939l11.16 19.575 7.036-12.292c.227-.396.233-.872.02-1.275l-6.677-12.558c-.5-.94-.176-2.107.737-2.654l2.07-1.241-15.435-4.739-3.799 15.676 2.154-1.236c.308-.175.65-.265.997-.265z" fill="#690589"/></g><g><path d="m29.449 110.504c-1.042 0-1.921-.808-1.993-1.864l-.819-12c-.075-1.102.757-2.056 1.859-2.131 1.112-.084 2.057.757 2.131 1.859l.819 12c.076 1.102-.757 2.056-1.859 2.131-.046.003-.092.005-.138.005z" fill="#690589"/></g></g></svg>